HIERARCHY
ROOT Hips
{
	OFFSET -3.958830 18.904000 13.208200
	CHANNELS 6 Xposition Yposition Zposition Zrotation Yrotation Xrotation 
	JOINT LHipJoint
	{
		OFFSET 0.000000 0.000000 0.000000
		CHANNELS 3 Zrotation Yrotation Xrotation
		JOINT LeftUpLeg
		{
			OFFSET 1.800000 -1.400000 0.085000
			CHANNELS 3 Zrotation Yrotation Xrotation
			JOINT LeftLeg
			{
				OFFSET 2.215000 -6.000000 0.000000
				CHANNELS 3 Zrotation Yrotation Xrotation
				JOINT LeftFoot
				{
					OFFSET 2.500000 -6.900000 0.000000
					CHANNELS 3 Zrotation Yrotation Xrotation
					JOINT LeftToeBase
					{
						OFFSET 0.200000 -0.500000 1.950000
						CHANNELS 3 Zrotation Yrotation Xrotation
						End Site
						{
							OFFSET 0.000000 0.000000 0.000000
						}
					}
				}
			}
		}
	}
	JOINT RHipJoint
	{
		OFFSET 0.000000 0.000000 0.000000
		CHANNELS 3 Zrotation Yrotation Xrotation
		JOINT RightUpLeg
		{
			OFFSET -1.800000 -1.400000 0.085000
			CHANNELS 3 Zrotation Yrotation Xrotation
			JOINT RightLeg
			{
				OFFSET -2.215000 -6.000000 0.000000
				CHANNELS 3 Zrotation Yrotation Xrotation
				JOINT RightFoot
				{
					OFFSET -2.500000 -6.900000 0.000000
					CHANNELS 3 Zrotation Yrotation Xrotation
					JOINT RightToeBase
					{
						OFFSET -0.200000 -0.500000 1.950000
						CHANNELS 3 Zrotation Yrotation Xrotation
						End Site
						{
							OFFSET 0.000000 0.000000 0.000000
						}
					}
				}
			}
		}
	}
	JOINT LowerBack
	{
		OFFSET 0.000000 0.000000 0.000000
		CHANNELS 3 Zrotation Yrotation Xrotation
		JOINT Spine
		{
			OFFSET -0.087000 1.940000 -0.288900
			CHANNELS 3 Zrotation Yrotation Xrotation
			JOINT Spine1
			{
				OFFSET 0.000000 1.950000 0.060000
				CHANNELS 3 Zrotation Yrotation Xrotation
				JOINT Neck
				{
					OFFSET 0.000000 0.000000 0.000000
					CHANNELS 3 Zrotation Yrotation Xrotation
					JOINT Neck1
					{
						OFFSET 0.000000 1.600000 0.340000
						CHANNELS 3 Zrotation Yrotation Xrotation
						JOINT Head
						{
							OFFSET 0.000000 1.667000 -0.240000
							CHANNELS 3 Zrotation Yrotation Xrotation
							End Site
							{
								OFFSET 0.000000 0.000000 0.000000
							}
						}
					}
				}
				JOINT LeftShoulder
				{
					OFFSET 0.000000 0.000000 0.000000
					CHANNELS 3 Zrotation Yrotation Xrotation
					JOINT LeftArm
					{
						OFFSET 2.700000 1.550000 -0.730000
						CHANNELS 3 Zrotation Yrotation Xrotation
						JOINT LeftForeArm
						{
							OFFSET 5.450000 0.000000 0.000000
							CHANNELS 3 Zrotation Yrotation Xrotation
							JOINT LeftHand
							{
								OFFSET 3.450000 0.000000 0.000000
								CHANNELS 3 Zrotation Yrotation Xrotation
								JOINT LeftHandIndex1
								{
									OFFSET 0.750000 0.000000 0.000000
									CHANNELS 3 Zrotation Yrotation Xrotation
									End Site
									{
										OFFSET 0.000000 0.000000 0.000000
									}
								}
							}
						}
					}
				}
				JOINT RightShoulder
				{
					OFFSET 0.000000 0.000000 0.000000
					CHANNELS 3 Zrotation Yrotation Xrotation
					JOINT RightArm
					{
						OFFSET -2.700000 1.550000 -0.730000
						CHANNELS 3 Zrotation Yrotation Xrotation
						JOINT RightForeArm
						{
							OFFSET -5.450000 0.000000 0.000000
							CHANNELS 3 Zrotation Yrotation Xrotation
							JOINT RightHand
							{
								OFFSET -3.450000 0.000000 0.000000
								CHANNELS 3 Zrotation Yrotation Xrotation
								JOINT RightHandIndex1
								{
									OFFSET -0.750000 0.000000 0.000000
									CHANNELS 3 Zrotation Yrotation Xrotation
									End Site
									{
										OFFSET 0.000000 0.000000 0.000000
									}
								}
							}
						}
					}
				}
			}
		}
	}
}
MOTION
Frames: 12
Frame Time: 0.016667
-0.039050 17.463870 -1.466540 -11.688591 23.075808 -7.204249 -14.984050 12.998485 2.495917 20.503810 3.284473 -22.193117 -1.557336 6.912197 19.063262 -0.309226 4.583286 2.916014 0.642630 0.170540 0.389950 18.298502 -11.669463 2.901078 -11.882249 1.506566 -0.997761 11.032051 -6.211099 11.189102 -0.591345 -4.773297 2.974178 0.046500 0.130020 0.154940 -4.422293 0.577374 -7.790916 -3.124782 2.708839 25.655213 -29.940104 9.663264 10.621522 12.624307 -12.391962 -19.089137 -31.777673 13.283291 38.574769 5.984810 -2.705420 -4.690710 -7.006816 -13.041933 6.364116 -30.154018 -0.930539 -12.664897 -65.261487 -59.997698 27.539094 -2.912090 3.820868 0.623320 -0.098430 -0.015660 0.327520 -16.940598 28.859238 11.611645 -36.446107 0.471639 -15.540155 -68.946725 -42.579276 12.913226 5.402865 -1.926727 -0.087070 0.107440 -0.210290 -0.167970 
-0.072800 17.511720 -1.471940 -11.781850 23.905815 -5.288987 -14.946481 12.696667 2.480571 19.778620 3.719667 -23.862691 -1.620932 6.613858 17.134773 -0.373121 4.360931 2.985052 0.712370 0.249950 0.393750 18.396589 -11.638035 2.961983 -11.287951 1.887156 -2.254300 11.540993 -5.751049 9.449024 -0.559982 -4.694357 2.967604 0.126210 0.159790 0.194730 -4.592161 1.092195 -7.806343 -2.588258 3.522574 24.378000 -30.700270 10.657129 10.909127 11.676815 -12.973037 -16.817386 -31.270487 13.479568 37.891519 6.321610 -3.484870 -5.433200 -6.843338 -12.675577 5.819407 -28.423652 -3.455374 -11.382665 -68.546712 -58.528713 29.054633 -3.056808 3.866885 0.560770 -0.065060 -0.048370 0.353850 -16.005538 28.351673 8.550094 -41.260847 5.018114 -16.881926 -57.711775 -33.866486 7.410704 4.969191 -1.767628 -0.060890 0.094080 -0.218040 -0.143960 
-0.098410 17.546040 -1.491680 -12.476804 24.238660 -4.566978 -14.868866 12.389946 2.442276 19.813162 4.661909 -24.385952 -2.112128 6.468419 14.885036 -0.317704 4.117996 3.054563 0.813000 0.426540 0.414810 18.527692 -11.658993 3.061645 -10.196439 2.057905 -2.448685 11.651180 -5.247062 7.527077 -0.602909 -4.617015 3.006988 0.206970 0.109160 0.171790 -4.866156 1.726473 -7.909918 -1.081204 3.982828 24.372263 -31.204984 11.369632 10.881000 11.161585 -13.374641 -15.801356 -32.347202 14.942856 39.343042 6.727940 -3.757560 -6.041560 -7.435118 -13.433526 6.358655 -28.246610 -4.354287 -11.338480 -71.368698 -58.741306 30.720429 -3.020729 3.911133 0.506500 -0.097470 -0.008290 0.402770 -14.831359 29.011201 6.366244 -45.177292 8.084761 -18.572034 -47.510132 -22.746064 2.236491 4.368484 -1.657611 0.007670 0.085880 -0.305290 -0.095200 
-0.132120 17.559580 -1.515240 -12.577619 24.438826 -4.121184 -14.929744 12.332875 2.428676 19.579339 5.701284 -25.044878 -2.366913 6.499889 13.698264 -0.402667 4.151651 3.014638 0.825600 0.406670 0.445130 18.494908 -11.520200 3.155712 -9.891032 2.424198 -2.140534 12.258083 -4.915272 5.810952 -0.626611 -4.616320 2.969511 0.229720 0.085090 0.178360 -4.686646 1.670795 -7.932262 -2.173257 4.728894 24.761749 -30.266756 12.138016 10.463854 11.102872 -13.609688 -14.794962 -32.257004 14.760346 40.320763 6.299420 -4.470770 -7.825150 -8.421988 -13.941978 6.290034 -28.429936 -5.452258 -11.466497 -71.590195 -57.709353 29.876816 -3.039613 3.877909 0.563660 -0.119960 -0.005450 0.369940 -14.023714 30.054411 4.677672 -48.359851 10.717208 -20.281830 -37.931059 -12.655212 -0.961600 3.733293 -1.501245 -0.026820 0.098830 -0.269980 -0.135530 
-0.168370 17.552850 -1.518160 -12.299606 24.851468 -2.971411 -15.050282 12.375548 2.496942 18.952112 6.414833 -26.434699 -2.612175 6.603311 13.015988 -0.561036 4.258735 2.956034 0.796160 0.295690 0.511390 18.391517 -11.305841 3.198913 -9.818548 2.846513 -2.549069 12.712300 -4.619545 4.617129 -0.617230 -4.480240 2.972454 0.219750 0.071220 0.155360 -4.333364 1.240962 -7.898717 -4.365765 5.736317 23.829842 -28.847574 12.902968 9.845013 10.867616 -12.938207 -14.249720 -30.838176 14.652877 43.441507 6.657220 -4.681140 -10.213680 -9.248577 -14.247314 6.184544 -29.061981 -5.704183 -11.438128 -71.397183 -56.496560 28.752911 -3.078725 3.727685 0.704710 -0.158840 -0.001630 0.299670 -12.857484 30.466870 3.511079 -49.216224 14.764233 -21.299196 -31.670903 -3.922748 -2.438588 3.154696 -1.400967 -0.136030 0.172700 -0.196090 -0.230300 
-0.184120 17.544320 -1.529370 -12.429969 25.063357 -1.859757 -15.084790 12.327184 2.598836 18.451248 6.876855 -27.988482 -2.768154 6.689756 12.641099 -0.691198 4.338379 2.897748 0.781730 0.214370 0.573700 18.367319 -11.249666 3.206642 -9.316134 3.142777 -3.641361 12.589128 -4.423944 4.400674 -0.589631 -4.290635 2.998150 0.211020 0.047200 0.150740 -4.250357 1.202864 -7.926878 -4.762627 6.678145 23.028774 -28.207512 13.442354 8.921611 10.505285 -11.968109 -13.927235 -28.887675 14.583457 46.938766 6.853110 -4.436140 -11.932030 -10.751233 -15.178406 6.125323 -28.161647 -6.010975 -10.971933 -73.302650 -55.723512 29.521205 -3.121792 3.623982 0.820660 -0.188220 0.010500 0.242630 -10.809720 30.843595 2.778207 -48.910752 19.296318 -21.877411 -27.944706 3.655778 -3.112063 2.783447 -1.411962 -0.213220 0.209160 -0.144150 -0.310060 
-0.192550 17.514720 -1.545550 -12.436382 24.720351 -1.260838 -15.080103 12.321613 2.649756 18.046105 7.377143 -29.098071 -2.640648 6.872580 12.960803 -0.798432 4.424345 2.822128 0.725440 0.112860 0.607450 18.357155 -11.311067 3.205915 -9.283958 3.550374 -4.781220 12.638710 -4.476535 5.318981 -0.557699 -4.136785 3.014997 0.176560 0.012490 0.142120 -4.255765 1.350321 -7.969626 -4.834338 7.720352 22.732883 -27.719621 14.122149 8.069358 10.195845 -10.595800 -14.156550 -26.211576 14.210659 51.984247 7.267360 -4.083260 -13.955990 -12.359721 -16.860912 6.677817 -27.491697 -5.422003 -10.886521 -75.931067 -55.822623 31.123339 -3.150589 3.494695 0.944850 -0.221990 0.042200 0.161310 -8.622908 32.013014 2.340139 -46.549146 23.545018 -22.748891 -27.980318 9.958685 -3.745995 2.630183 -1.396854 -0.285430 0.244490 -0.072790 -0.385300 
-0.191670 17.497880 -1.579220 -12.774278 24.496676 -1.633783 -15.063824 12.346200 2.642571 17.904381 7.742727 -29.521309 -2.147649 6.961917 13.432099 -0.923107 4.549121 2.735154 0.652770 -0.007970 0.581250 18.359874 -11.384284 3.194625 -9.357366 3.917531 -5.390526 12.832028 -4.676180 6.690842 -0.496869 -4.139336 2.977159 0.162500 0.030560 0.154630 -4.317883 1.471532 -7.988727 -4.146859 8.199209 23.105531 -27.147458 14.462838 8.120394 9.833303 -10.106222 -14.236399 -25.146382 14.772905 54.792743 7.957670 -4.074260 -14.179840 -13.761625 -18.716753 7.424025 -27.425790 -5.165383 -11.021961 -77.317263 -57.081788 32.664951 -3.225711 3.421356 1.021380 -0.204190 0.013960 0.084900 -6.510642 33.746553 1.437009 -43.575881 28.848505 -24.010148 -28.055324 14.753908 -4.474093 2.510044 -1.399076 -0.365640 0.252660 0.025170 -0.443160 
-0.191370 17.454750 -1.592230 -12.622811 24.739446 -1.016542 -15.103278 12.421511 2.684631 17.102855 7.833856 -31.274116 -1.197736 7.163421 15.018829 -1.013090 4.667407 2.646797 0.574420 -0.138270 0.545600 18.303208 -11.368513 3.189155 -9.867680 4.527237 -6.703235 13.488246 -4.851002 8.161704 -0.407018 -4.171704 2.892413 0.149320 0.011680 0.182240 -4.212014 1.360140 -7.991903 -4.862297 8.819591 22.026966 -25.900773 14.540459 7.523837 9.382817 -9.202242 -14.487340 -22.715918 14.727688 57.851547 7.464920 -3.695590 -10.816320 -15.576518 -20.395702 8.500561 -26.401879 -2.988870 -10.703364 -77.474118 -55.340681 31.600574 -3.267168 3.425129 1.054310 -0.165260 -0.037840 -0.004560 -3.602000 35.337288 0.662694 -39.657693 34.945929 -24.254964 -26.925513 18.652341 -4.891769 2.408120 -1.462651 -0.422850 0.157240 0.093880 -0.513380 
-0.205960 17.406910 -1.612020 -12.089393 24.805274 -0.952160 -15.163383 12.540259 2.612827 16.121544 8.035625 -32.468969 -0.070316 7.389320 16.953905 -0.861544 4.643105 2.604531 0.666560 -0.016060 0.624050 18.229973 -11.352557 3.179845 -11.014796 5.251825 -7.500133 14.659590 -5.188582 10.030735 -0.448313 -4.293675 2.826195 0.131850 -0.042300 0.270660 -4.028203 1.234592 -7.901122 -5.721041 9.375119 21.710964 -24.652954 14.755968 7.908018 9.609536 -8.341037 -14.085590 -19.868961 14.373197 59.989967 5.516470 -2.286530 -9.763330 -15.887574 -21.221731 9.237726 -26.370485 -2.512396 -10.601576 -77.744648 -54.066136 30.865129 -3.248264 3.581344 0.950680 -0.168210 0.037700 0.041840 -3.669587 36.050102 -1.184438 -34.618304 39.095653 -22.657919 -24.013517 20.645937 -4.731163 2.433626 -1.580085 -0.261110 0.064090 0.016520 -0.449560 
-0.213940 17.371190 -1.637570 -11.559833 24.649382 -1.893058 -15.191231 12.628169 2.491415 15.794511 8.358468 -32.483656 0.428106 7.765131 19.186308 -0.753467 4.769154 2.554208 0.790260 0.154070 0.688280 18.191545 -11.371304 3.185667 -12.307289 5.872839 -7.245814 15.888630 -5.633148 11.707950 -0.549502 -4.562550 2.733242 0.171350 -0.079250 0.340390 -3.945190 1.236269 -7.827372 -5.992264 9.338124 22.798209 -24.233185 14.634833 8.733580 10.215632 -8.175883 -13.245507 -18.258076 13.782446 60.669932 3.257370 -1.759750 -11.421010 -15.872476 -22.024554 9.819289 -26.122531 -2.554018 -11.027170 -76.310045 -54.262135 30.045436 -3.198638 3.658964 0.898400 -0.166680 0.114490 0.111170 -4.850753 37.095653 -3.664879 -30.663245 42.734868 -21.752077 -20.299449 20.607082 -4.164884 2.415472 -1.688246 -0.140550 0.035810 -0.074930 -0.397300 
-0.205620 17.322510 -1.656620 -11.641675 24.112865 -2.508077 -15.163710 12.579578 2.440931 15.860112 8.682665 -32.847676 1.036320 8.147993 21.175196 -0.747802 4.958668 2.453738 0.814910 0.223070 0.693680 18.220410 -11.430620 3.211381 -12.984784 6.603041 -7.677265 16.971118 -6.052777 13.591760 -0.574642 -4.775813 2.653159 0.213020 -0.120080 0.316660 -4.034691 1.515762 -7.858423 -4.830683 9.262907 23.484041 -24.427173 14.382591 8.520368 10.618879 -8.626244 -12.523080 -18.385616 13.815934 61.364565 0.785880 -1.495130 -12.575820 -16.414206 -22.871567 10.462463 -26.346832 -2.272203 -11.195798 -73.473387 -53.792824 28.164453 -3.171718 3.642138 0.881420 -0.172580 0.126320 0.106410 -5.137719 38.389463 -6.136042 -23.905002 45.952314 -19.390888 -17.746890 21.608922 -3.920641 2.392048 -1.741023 -0.128310 0.046380 -0.086910 -0.398990 
